<svg xmlns="http://www.w3.org/2000/svg" viewBox="0 0 100 100" width="100" height="100">
  <defs>
    <linearGradient id="g" x1="0" y1="0" x2="1" y2="1">
      <stop offset="0" stop-color="#a3d44b"/>
      <stop offset="0.5" stop-color="#5fb43a"/>
      <stop offset="1" stop-color="#1f9d3b"/>
    </linearGradient>
  </defs>
  <circle cx="50" cy="50" r="47" fill="url(#g)"/>
  <circle cx="50" cy="50" r="41" fill="#fff"/>
  <circle cx="50" cy="50" r="38" fill="url(#g)"/>
  <g stroke="#fff" stroke-width="2.4" stroke-linecap="round">
    <line x1="65.50" y1="50.00" x2="72.00" y2="50.00"/>
    <line x1="64.32" y1="55.93" x2="74.94" y2="60.33"/>
    <line x1="60.96" y1="60.96" x2="65.56" y2="65.56"/>
    <line x1="55.93" y1="64.32" x2="60.33" y2="74.94"/>
    <line x1="50.00" y1="65.50" x2="50.00" y2="72.00"/>
    <line x1="44.07" y1="64.32" x2="39.67" y2="74.94"/>
    <line x1="39.04" y1="60.96" x2="34.44" y2="65.56"/>
    <line x1="35.68" y1="55.93" x2="25.06" y2="60.33"/>
    <line x1="34.50" y1="50.00" x2="28.00" y2="50.00"/>
    <line x1="35.68" y1="44.07" x2="25.06" y2="39.67"/>
    <line x1="39.04" y1="39.04" x2="34.44" y2="34.44"/>
    <line x1="44.07" y1="35.68" x2="39.67" y2="25.06"/>
    <line x1="50.00" y1="34.50" x2="50.00" y2="28.00"/>
    <line x1="55.93" y1="35.68" x2="60.33" y2="25.06"/>
    <line x1="60.96" y1="39.04" x2="65.56" y2="34.44"/>
    <line x1="64.32" y1="44.07" x2="74.94" y2="39.67"/>
  </g>
  <circle cx="50" cy="50" r="11" fill="#fff"/>
</svg>
